<?xml version="1.0" encoding="UTF-8"?>
<!DOCTYPE score-partwise PUBLIC "-//Recordare//DTD MusicXML 3.1 Partwise//EN" "http://www.musicxml.org/dtds/partwise.dtd">
<score-partwise version="3.1">
  <work>
    <work-title>Happy Birthday</work-title>
  </work>
  <identification>
    <creator type="composer">Traditional</creator>
    <encoding>
      <software>Hand-coded MusicXML</software>
      <encoding-date>2024</encoding-date>
    </encoding>
  </identification>
  <defaults>
    <scaling>
      <millimeters>7</millimeters>
      <tenths>40</tenths>
    </scaling>
  </defaults>
  <part-list>
    <score-part id="P1">
      <part-name>Acoustic Guitar</part-name>
      <score-instrument id="P1-I1">
        <instrument-name>Acoustic Guitar</instrument-name>
      </score-instrument>
      <midi-instrument id="P1-I1">
        <midi-channel>1</midi-channel>
        <midi-program>25</midi-program>
      </midi-instrument>
    </score-part>
  </part-list>
  <part id="P1">
    <!-- Measure 1 -->
    <measure number="1">
      <attributes>
        <divisions>2</divisions>
        <key>
          <fifths>0</fifths>
        </key>
        <time>
          <beats>3</beats>
          <beat-type>4</beat-type>
        </time>
        <staves>2</staves>
        <clef number="1">
          <sign>G</sign>
          <line>2</line>
        </clef>
        <clef number="2">
          <sign>TAB</sign>
          <line>5</line>
        </clef>
        <staff-details number="2">
          <staff-lines>6</staff-lines>
          <staff-tuning line="1">
            <tuning-step>E</tuning-step>
            <tuning-octave>2</tuning-octave>
          </staff-tuning>
          <staff-tuning line="2">
            <tuning-step>A</tuning-step>
            <tuning-octave>2</tuning-octave>
          </staff-tuning>
          <staff-tuning line="3">
            <tuning-step>D</tuning-step>
            <tuning-octave>3</tuning-octave>
          </staff-tuning>
          <staff-tuning line="4">
            <tuning-step>G</tuning-step>
            <tuning-octave>3</tuning-octave>
          </staff-tuning>
          <staff-tuning line="5">
            <tuning-step>B</tuning-step>
            <tuning-octave>3</tuning-octave>
          </staff-tuning>
          <staff-tuning line="6">
            <tuning-step>E</tuning-step>
            <tuning-octave>4</tuning-octave>
          </staff-tuning>
        </staff-details>
      </attributes>
      
      <!-- Happy Birth - pickup notes -->
      <note>
        <pitch>
          <step>G</step>
          <octave>4</octave>
        </pitch>
        <duration>1</duration>
        <voice>1</voice>
        <type>eighth</type>
        <stem>up</stem>
        <staff>1</staff>
      </note>
      <backup>
        <duration>1</duration>
      </backup>
      <note>
        <pitch>
          <step>G</step>
          <octave>4</octave>
        </pitch>
        <duration>1</duration>
        <voice>5</voice>
        <type>eighth</type>
        <stem>none</stem>
        <staff>2</staff>
        <notations>
          <technical>
            <string>1</string>
            <fret>3</fret>
          </technical>
        </notations>
      </note>
      
      <note>
        <pitch>
          <step>G</step>
          <octave>4</octave>
        </pitch>
        <duration>1</duration>
        <voice>1</voice>
        <type>eighth</type>
        <stem>up</stem>
        <staff>1</staff>
      </note>
      <backup>
        <duration>1</duration>
      </backup>
      <note>
        <pitch>
          <step>G</step>
          <octave>4</octave>
        </pitch>
        <duration>1</duration>
        <voice>5</voice>
        <type>eighth</type>
        <stem>none</stem>
        <staff>2</staff>
        <notations>
          <technical>
            <string>1</string>
            <fret>3</fret>
          </technical>
        </notations>
      </note>
    </measure>
    
    <!-- Measure 2 -->
    <measure number="2">
      <!-- day -->
      <note>
        <pitch>
          <step>A</step>
          <octave>4</octave>
        </pitch>
        <duration>2</duration>
        <voice>1</voice>
        <type>quarter</type>
        <stem>up</stem>
        <staff>1</staff>
      </note>
      <backup>
        <duration>2</duration>
      </backup>
      <note>
        <pitch>
          <step>A</step>
          <octave>4</octave>
        </pitch>
        <duration>2</duration>
        <voice>5</voice>
        <type>quarter</type>
        <stem>none</stem>
        <staff>2</staff>
        <notations>
          <technical>
            <string>1</string>
            <fret>5</fret>
          </technical>
        </notations>
      </note>
      
      <!-- to -->
      <note>
        <pitch>
          <step>G</step>
          <octave>4</octave>
        </pitch>
        <duration>2</duration>
        <voice>1</voice>
        <type>quarter</type>
        <stem>up</stem>
        <staff>1</staff>
      </note>
      <backup>
        <duration>2</duration>
      </backup>
      <note>
        <pitch>
          <step>G</step>
          <octave>4</octave>
        </pitch>
        <duration>2</duration>
        <voice>5</voice>
        <type>quarter</type>
        <stem>none</stem>
        <staff>2</staff>
        <notations>
          <technical>
            <string>1</string>
            <fret>3</fret>
          </technical>
        </notations>
      </note>
      
      <!-- you -->
      <note>
        <pitch>
          <step>C</step>
          <octave>5</octave>
        </pitch>
        <duration>2</duration>
        <voice>1</voice>
        <type>quarter</type>
        <stem>down</stem>
        <staff>1</staff>
      </note>
      <backup>
        <duration>2</duration>
      </backup>
      <note>
        <pitch>
          <step>C</step>
          <octave>5</octave>
        </pitch>
        <duration>2</duration>
        <voice>5</voice>
        <type>quarter</type>
        <stem>none</stem>
        <staff>2</staff>
        <notations>
          <technical>
            <string>2</string>
            <fret>1</fret>
          </technical>
        </notations>
      </note>
    </measure>
    
    <!-- Measure 3 -->
    <measure number="3">
      <!-- Happy -->
      <note>
        <pitch>
          <step>B</step>
          <octave>4</octave>
        </pitch>
        <duration>4</duration>
        <voice>1</voice>
        <type>half</type>
        <stem>down</stem>
        <staff>1</staff>
      </note>
      <backup>
        <duration>4</duration>
      </backup>
      <note>
        <pitch>
          <step>B</step>
          <octave>4</octave>
        </pitch>
        <duration>4</duration>
        <voice>5</voice>
        <type>half</type>
        <stem>none</stem>
        <staff>2</staff>
        <notations>
          <technical>
            <string>2</string>
            <fret>0</fret>
          </technical>
        </notations>
      </note>
      
      <!-- Birth- -->
      <note>
        <pitch>
          <step>G</step>
          <octave>4</octave>
        </pitch>
        <duration>1</duration>
        <voice>1</voice>
        <type>eighth</type>
        <stem>up</stem>
        <staff>1</staff>
      </note>
      <backup>
        <duration>1</duration>
      </backup>
      <note>
        <pitch>
          <step>G</step>
          <octave>4</octave>
        </pitch>
        <duration>1</duration>
        <voice>5</voice>
        <type>eighth</type>
        <stem>none</stem>
        <staff>2</staff>
        <notations>
          <technical>
            <string>1</string>
            <fret>3</fret>
          </technical>
        </notations>
      </note>
      
      <note>
        <pitch>
          <step>G</step>
          <octave>4</octave>
        </pitch>
        <duration>1</duration>
        <voice>1</voice>
        <type>eighth</type>
        <stem>up</stem>
        <staff>1</staff>
      </note>
      <backup>
        <duration>1</duration>
      </backup>
      <note>
        <pitch>
          <step>G</step>
          <octave>4</octave>
        </pitch>
        <duration>1</duration>
        <voice>5</voice>
        <type>eighth</type>
        <stem>none</stem>
        <staff>2</staff>
        <notations>
          <technical>
            <string>1</string>
            <fret>3</fret>
          </technical>
        </notations>
      </note>
    </measure>
    
    <!-- Measure 4 -->
    <measure number="4">
      <!-- day -->
      <note>
        <pitch>
          <step>A</step>
          <octave>4</octave>
        </pitch>
        <duration>2</duration>
        <voice>1</voice>
        <type>quarter</type>
        <stem>up</stem>
        <staff>1</staff>
      </note>
      <backup>
        <duration>2</duration>
      </backup>
      <note>
        <pitch>
          <step>A</step>
          <octave>4</octave>
        </pitch>
        <duration>2</duration>
        <voice>5</voice>
        <type>quarter</type>
        <stem>none</stem>
        <staff>2</staff>
        <notations>
          <technical>
            <string>1</string>
            <fret>5</fret>
          </technical>
        </notations>
      </note>
      
      <!-- to -->
      <note>
        <pitch>
          <step>G</step>
          <octave>4</octave>
        </pitch>
        <duration>2</duration>
        <voice>1</voice>
        <type>quarter</type>
        <stem>up</stem>
        <staff>1</staff>
      </note>
      <backup>
        <duration>2</duration>
      </backup>
      <note>
        <pitch>
          <step>G</step>
          <octave>4</octave>
        </pitch>
        <duration>2</duration>
        <voice>5</voice>
        <type>quarter</type>
        <stem>none</stem>
        <staff>2</staff>
        <notations>
          <technical>
            <string>1</string>
            <fret>3</fret>
          </technical>
        </notations>
      </note>
      
      <!-- you -->
      <note>
        <pitch>
          <step>D</step>
          <octave>5</octave>
        </pitch>
        <duration>2</duration>
        <voice>1</voice>
        <type>quarter</type>
        <stem>down</stem>
        <staff>1</staff>
      </note>
      <backup>
        <duration>2</duration>
      </backup>
      <note>
        <pitch>
          <step>D</step>
          <octave>5</octave>
        </pitch>
        <duration>2</duration>
        <voice>5</voice>
        <type>quarter</type>
        <stem>none</stem>
        <staff>2</staff>
        <notations>
          <technical>
            <string>2</string>
            <fret>3</fret>
          </technical>
        </notations>
      </note>
    </measure>
    
    <!-- Measure 5 -->
    <measure number="5">
      <!-- Happy -->
      <note>
        <pitch>
          <step>C</step>
          <octave>5</octave>
        </pitch>
        <duration>4</duration>
        <voice>1</voice>
        <type>half</type>
        <stem>down</stem>
        <staff>1</staff>
      </note>
      <backup>
        <duration>4</duration>
      </backup>
      <note>
        <pitch>
          <step>C</step>
          <octave>5</octave>
        </pitch>
        <duration>4</duration>
        <voice>5</voice>
        <type>half</type>
        <stem>none</stem>
        <staff>2</staff>
        <notations>
          <technical>
            <string>2</string>
            <fret>1</fret>
          </technical>
        </notations>
      </note>
      
      <!-- Birth- -->
      <note>
        <pitch>
          <step>G</step>
          <octave>4</octave>
        </pitch>
        <duration>1</duration>
        <voice>1</voice>
        <type>eighth</type>
        <stem>up</stem>
        <staff>1</staff>
      </note>
      <backup>
        <duration>1</duration>
      </backup>
      <note>
        <pitch>
          <step>G</step>
          <octave>4</octave>
        </pitch>
        <duration>1</duration>
        <voice>5</voice>
        <type>eighth</type>
        <stem>none</stem>
        <staff>2</staff>
        <notations>
          <technical>
            <string>1</string>
            <fret>3</fret>
          </technical>
        </notations>
      </note>
      
      <note>
        <pitch>
          <step>G</step>
          <octave>4</octave>
        </pitch>
        <duration>1</duration>
        <voice>1</voice>
        <type>eighth</type>
        <stem>up</stem>
        <staff>1</staff>
      </note>
      <backup>
        <duration>1</duration>
      </backup>
      <note>
        <pitch>
          <step>G</step>
          <octave>4</octave>
        </pitch>
        <duration>1</duration>
        <voice>5</voice>
        <type>eighth</type>
        <stem>none</stem>
        <staff>2</staff>
        <notations>
          <technical>
            <string>1</string>
            <fret>3</fret>
          </technical>
        </notations>
      </note>
    </measure>
    
    <!-- Measure 6 -->
    <measure number="6">
      <!-- day -->
      <note>
        <pitch>
          <step>G</step>
          <octave>5</octave>
        </pitch>
        <duration>2</duration>
        <voice>1</voice>
        <type>quarter</type>
        <stem>down</stem>
        <staff>1</staff>
      </note>
      <backup>
        <duration>2</duration>
      </backup>
      <note>
        <pitch>
          <step>G</step>
          <octave>5</octave>
        </pitch>
        <duration>2</duration>
        <voice>5</voice>
        <type>quarter</type>
        <stem>none</stem>
        <staff>2</staff>
        <notations>
          <technical>
            <string>1</string>
            <fret>15</fret>
          </technical>
        </notations>
      </note>
      
      <!-- dear -->
      <note>
        <pitch>
          <step>E</step>
          <octave>5</octave>
        </pitch>
        <duration>2</duration>
        <voice>1</voice>
        <type>quarter</type>
        <stem>down</stem>
        <staff>1</staff>
      </note>
      <backup>
        <duration>2</duration>
      </backup>
      <note>
        <pitch>
          <step>E</step>
          <octave>5</octave>
        </pitch>
        <duration>2</duration>
        <voice>5</voice>
        <type>quarter</type>
        <stem>none</stem>
        <staff>2</staff>
        <notations>
          <technical>
            <string>1</string>
            <fret>12</fret>
          </technical>
        </notations>
      </note>
      
      <!-- [Name] -->
      <note>
        <pitch>
          <step>C</step>
          <octave>5</octave>
        </pitch>
        <duration>2</duration>
        <voice>1</voice>
        <type>quarter</type>
        <stem>down</stem>
        <staff>1</staff>
      </note>
      <backup>
        <duration>2</duration>
      </backup>
      <note>
        <pitch>
          <step>C</step>
          <octave>5</octave>
        </pitch>
        <duration>2</duration>
        <voice>5</voice>
        <type>quarter</type>
        <stem>none</stem>
        <staff>2</staff>
        <notations>
          <technical>
            <string>2</string>
            <fret>1</fret>
          </technical>
        </notations>
      </note>
    </measure>
    
    <!-- Measure 7 -->
    <measure number="7">
      <!-- Happy -->
      <note>
        <pitch>
          <step>B</step>
          <octave>4</octave>
        </pitch>
        <duration>3</duration>
        <voice>1</voice>
        <type>quarter</type>
        <dot/>
        <stem>down</stem>
        <staff>1</staff>
      </note>
      <backup>
        <duration>3</duration>
      </backup>
      <note>
        <pitch>
          <step>B</step>
          <octave>4</octave>
        </pitch>
        <duration>3</duration>
        <voice>5</voice>
        <type>quarter</type>
        <dot/>
        <stem>none</stem>
        <staff>2</staff>
        <notations>
          <technical>
            <string>2</string>
            <fret>0</fret>
          </technical>
        </notations>
      </note>
      
      <note>
        <pitch>
          <step>A</step>
          <octave>4</octave>
        </pitch>
        <duration>1</duration>
        <voice>1</voice>
        <type>eighth</type>
        <stem>up</stem>
        <staff>1</staff>
      </note>
      <backup>
        <duration>1</duration>
      </backup>
      <note>
        <pitch>
          <step>A</step>
          <octave>4</octave>
        </pitch>
        <duration>1</duration>
        <voice>5</voice>
        <type>eighth</type>
        <stem>none</stem>
        <staff>2</staff>
        <notations>
          <technical>
            <string>1</string>
            <fret>5</fret>
          </technical>
        </notations>
      </note>
      
      <!-- Birth- -->
      <note>
        <pitch>
          <step>F</step>
          <octave>5</octave>
        </pitch>
        <duration>1</duration>
        <voice>1</voice>
        <type>eighth</type>
        <stem>down</stem>
        <staff>1</staff>
      </note>
      <backup>
        <duration>1</duration>
      </backup>
      <note>
        <pitch>
          <step>F</step>
          <octave>5</octave>
        </pitch>
        <duration>1</duration>
        <voice>5</voice>
        <type>eighth</type>
        <stem>none</stem>
        <staff>2</staff>
        <notations>
          <technical>
            <string>1</string>
            <fret>13</fret>
          </technical>
        </notations>
      </note>
      
      <note>
        <pitch>
          <step>F</step>
          <octave>5</octave>
        </pitch>
        <duration>1</duration>
        <voice>1</voice>
        <type>eighth</type>
        <stem>down</stem>
        <staff>1</staff>
      </note>
      <backup>
        <duration>1</duration>
      </backup>
      <note>
        <pitch>
          <step>F</step>
          <octave>5</octave>
        </pitch>
        <duration>1</duration>
        <voice>5</voice>
        <type>eighth</type>
        <stem>none</stem>
        <staff>2</staff>
        <notations>
          <technical>
            <string>1</string>
            <fret>13</fret>
          </technical>
        </notations>
      </note>
    </measure>
    
    <!-- Measure 8 -->
    <measure number="8">
      <!-- day -->
      <note>
        <pitch>
          <step>E</step>
          <octave>5</octave>
        </pitch>
        <duration>2</duration>
        <voice>1</voice>
        <type>quarter</type>
        <stem>down</stem>
        <staff>1</staff>
      </note>
      <backup>
        <duration>2</duration>
      </backup>
      <note>
        <pitch>
          <step>E</step>
          <octave>5</octave>
        </pitch>
        <duration>2</duration>
        <voice>5</voice>
        <type>quarter</type>
        <stem>none</stem>
        <staff>2</staff>
        <notations>
          <technical>
            <string>1</string>
            <fret>12</fret>
          </technical>
        </notations>
      </note>
      
      <!-- to -->
      <note>
        <pitch>
          <step>C</step>
          <octave>5</octave>
        </pitch>
        <duration>2</duration>
        <voice>1</voice>
        <type>quarter</type>
        <stem>down</stem>
        <staff>1</staff>
      </note>
      <backup>
        <duration>2</duration>
      </backup>
      <note>
        <pitch>
          <step>C</step>
          <octave>5</octave>
        </pitch>
        <duration>2</duration>
        <voice>5</voice>
        <type>quarter</type>
        <stem>none</stem>
        <staff>2</staff>
        <notations>
          <technical>
            <string>2</string>
            <fret>1</fret>
          </technical>
        </notations>
      </note>
      
      <!-- you -->
      <note>
        <pitch>
          <step>D</step>
          <octave>5</octave>
        </pitch>
        <duration>2</duration>
        <voice>1</voice>
        <type>quarter</type>
        <stem>down</stem>
        <staff>1</staff>
      </note>
      <backup>
        <duration>2</duration>
      </backup>
      <note>
        <pitch>
          <step>D</step>
          <octave>5</octave>
        </pitch>
        <duration>2</duration>
        <voice>5</voice>
        <type>quarter</type>
        <stem>none</stem>
        <staff>2</staff>
        <notations>
          <technical>
            <string>2</string>
            <fret>3</fret>
          </technical>
        </notations>
      </note>
    </measure>
    
    <!-- Measure 9 -->
    <measure number="9">
      <!-- Happy Birthday to you -->
      <note>
        <pitch>
          <step>C</step>
          <octave>5</octave>
        </pitch>
        <duration>6</duration>
        <voice>1</voice>
        <type>half</type>
        <dot/>
        <stem>down</stem>
        <staff>1</staff>
      </note>
      <backup>
        <duration>6</duration>
      </backup>
      <note>
        <pitch>
          <step>C</step>
          <octave>5</octave>
        </pitch>
        <duration>6</duration>
        <voice>5</voice>
        <type>half</type>
        <dot/>
        <stem>none</stem>
        <staff>2</staff>
        <notations>
          <technical>
            <string>2</string>
            <fret>1</fret>
          </technical>
        </notations>
      </note>
      <barline location="right">
        <bar-style>light-heavy</bar-style>
      </barline>
    </measure>
  </part>
</score-partwise>