<?xml version="1.0" encoding="UTF-8"?>
<!DOCTYPE score-partwise PUBLIC "-//Recordare//DTD MusicXML 4.0 Partwise//EN" "http://www.musicxml.org/dtds/partwise.dtd">
<score-partwise version="4.0">
  <work>
    <work-title>Oh Susanna</work-title>
    </work>
  <identification>
    <creator type="composer">Composer</creator>
    <encoding>
      <software>MuseScore Studio 4.6.2</software>
      <encoding-date>2025-10-23</encoding-date>
      <supports element="accidental" type="yes"/>
      <supports element="beam" type="yes"/>
      <supports element="print" attribute="new-page" type="yes" value="yes"/>
      <supports element="print" attribute="new-system" type="yes" value="yes"/>
      <supports element="stem" type="yes"/>
      </encoding>
    <miscellaneous>
      <miscellaneous-field name="partName">Acoustic Guitar</miscellaneous-field>
      </miscellaneous>
    </identification>
  <defaults>
    <scaling>
      <millimeters>6.99911</millimeters>
      <tenths>40</tenths>
      </scaling>
    <page-layout>
      <page-height>1696.94</page-height>
      <page-width>1200.48</page-width>
      <page-margins type="even">
        <left-margin>85.7252</left-margin>
        <right-margin>85.7252</right-margin>
        <top-margin>85.7252</top-margin>
        <bottom-margin>85.7252</bottom-margin>
        </page-margins>
      <page-margins type="odd">
        <left-margin>85.7252</left-margin>
        <right-margin>85.7252</right-margin>
        <top-margin>85.7252</top-margin>
        <bottom-margin>85.7252</bottom-margin>
        </page-margins>
      </page-layout>
    <appearance>
      <line-width type="light barline">1.8</line-width>
      <line-width type="heavy barline">5.5</line-width>
      <line-width type="beam">5</line-width>
      <line-width type="bracket">4.5</line-width>
      <line-width type="dashes">1</line-width>
      <line-width type="enclosure">1</line-width>
      <line-width type="ending">1.1</line-width>
      <line-width type="extend">1</line-width>
      <line-width type="leger">1.6</line-width>
      <line-width type="pedal">1.1</line-width>
      <line-width type="octave shift">1.1</line-width>
      <line-width type="slur middle">2.1</line-width>
      <line-width type="slur tip">0.5</line-width>
      <line-width type="staff">1.1</line-width>
      <line-width type="stem">1</line-width>
      <line-width type="tie middle">2.1</line-width>
      <line-width type="tie tip">0.5</line-width>
      <line-width type="tuplet bracket">1</line-width>
      <line-width type="wedge">1.2</line-width>
      <note-size type="cue">70</note-size>
      <note-size type="grace">70</note-size>
      <note-size type="grace-cue">49</note-size>
      </appearance>
    <music-font font-family="Leland"/>
    <word-font font-family="FreeSerif" font-size="10"/>
    <lyric-font font-family="FreeSerif" font-size="11"/>
    </defaults>
  <credit page="1">
    <credit-type>title</credit-type>
    <credit-words default-x="600.241935" default-y="1611.210312" justify="center" valign="top" font-size="22">Oh! Susanna</credit-words>
    </credit>
  <credit page="1">
    <credit-type>composer</credit-type>
    <credit-words default-x="1114.7587" default-y="1511.210312" justify="right" valign="bottom">Staff Notation and Tab - Easy Guitar Lesson by Duckdo aka Subhajit</credit-words>
    </credit>
  <credit page="1">
    <credit-words default-x="85.725171" default-y="1611.210312" justify="left" valign="top">Acoustic Guitar</credit-words>
    </credit>
  <part-list>
    <score-part id="P1">
      <part-name>Acoustic Guitar</part-name>
      <part-abbreviation>Guit.</part-abbreviation>
      <score-instrument id="P1-I1">
        <instrument-name>Acoustic Guitar</instrument-name>
        <instrument-sound>pluck.guitar.acoustic</instrument-sound>
        </score-instrument>
      <midi-device id="P1-I1" port="1"></midi-device>
      <midi-instrument id="P1-I1">
        <midi-channel>2</midi-channel>
        <midi-program>26</midi-program>
        <volume>78.7402</volume>
        <pan>0</pan>
        </midi-instrument>
      </score-part>
    </part-list>
  <part id="P1">
    <measure number="1" width="136.33">
      <print>
        <system-layout>
          <system-margins>
            <left-margin>50</left-margin>
            <right-margin>0</right-margin>
            </system-margins>
          <top-system-distance>170</top-system-distance>
          </system-layout>
        <staff-layout number="2">
          <staff-distance>47.37</staff-distance>
          </staff-layout>
        </print>
      <attributes>
        <divisions>2</divisions>
        <key>
          <fifths>0</fifths>
          </key>
        <time>
          <beats>4</beats>
          <beat-type>4</beat-type>
          </time>
        <staves>2</staves>
        <clef number="1">
          <sign>G</sign>
          <line>2</line>
          <clef-octave-change>-1</clef-octave-change>
          </clef>
        <clef number="2">
          <sign>TAB</sign>
          </clef>
        <staff-details number="2">
          <staff-lines>6</staff-lines>
          <staff-tuning line="1">
            <tuning-step>E</tuning-step>
            <tuning-octave>2</tuning-octave>
            </staff-tuning>
          <staff-tuning line="2">
            <tuning-step>A</tuning-step>
            <tuning-octave>2</tuning-octave>
            </staff-tuning>
          <staff-tuning line="3">
            <tuning-step>D</tuning-step>
            <tuning-octave>3</tuning-octave>
            </staff-tuning>
          <staff-tuning line="4">
            <tuning-step>G</tuning-step>
            <tuning-octave>3</tuning-octave>
            </staff-tuning>
          <staff-tuning line="5">
            <tuning-step>B</tuning-step>
            <tuning-octave>3</tuning-octave>
            </staff-tuning>
          <staff-tuning line="6">
            <tuning-step>E</tuning-step>
            <tuning-octave>4</tuning-octave>
            </staff-tuning>
          <staff-size>150</staff-size>
          </staff-details>
        </attributes>
      <note default-x="82.01" default-y="-50">
        <pitch>
          <step>C</step>
          <octave>3</octave>
          </pitch>
        <duration>1</duration>
        <voice>1</voice>
        <type>eighth</type>
        <stem>up</stem>
        <staff>1</staff>
        <beam number="1">begin</beam>
        </note>
      <note default-x="106.53" default-y="-45">
        <pitch>
          <step>D</step>
          <octave>3</octave>
          </pitch>
        <duration>1</duration>
        <voice>1</voice>
        <type>eighth</type>
        <stem>up</stem>
        <staff>1</staff>
        <beam number="1">end</beam>
        </note>
      <backup>
        <duration>2</duration>
        </backup>
      <note default-x="84.51" default-y="-147.37">
        <pitch>
          <step>C</step>
          <octave>3</octave>
          </pitch>
        <duration>1</duration>
        <voice>5</voice>
        <type>eighth</type>
        <stem>none</stem>
        <staff>2</staff>
        <notations>
          <technical>
            <string>5</string>
            <fret>3</fret>
            </technical>
          </notations>
        </note>
      <note default-x="109.03" default-y="-132.37">
        <pitch>
          <step>D</step>
          <octave>3</octave>
          </pitch>
        <duration>1</duration>
        <voice>5</voice>
        <type>eighth</type>
        <stem>none</stem>
        <staff>2</staff>
        <notations>
          <technical>
            <string>4</string>
            <fret>0</fret>
            </technical>
          </notations>
        </note>
      </measure>
    <measure number="2" width="168.04">
      <note default-x="12.5" default-y="-40">
        <pitch>
          <step>E</step>
          <octave>3</octave>
          </pitch>
        <duration>2</duration>
        <voice>1</voice>
        <type>quarter</type>
        <stem>up</stem>
        <staff>1</staff>
        </note>
      <note default-x="49.28" default-y="-30">
        <pitch>
          <step>G</step>
          <octave>3</octave>
          </pitch>
        <duration>2</duration>
        <voice>1</voice>
        <type>quarter</type>
        <stem>up</stem>
        <staff>1</staff>
        </note>
      <note default-x="86.06" default-y="-30">
        <pitch>
          <step>G</step>
          <octave>3</octave>
          </pitch>
        <duration>3</duration>
        <voice>1</voice>
        <type>quarter</type>
        <dot default-x="104.05" default-y="-25"/>
        <stem>up</stem>
        <staff>1</staff>
        </note>
      <note default-x="132.68" default-y="-25">
        <pitch>
          <step>A</step>
          <octave>3</octave>
          </pitch>
        <duration>1</duration>
        <voice>1</voice>
        <type>eighth</type>
        <stem>up</stem>
        <staff>1</staff>
        </note>
      <backup>
        <duration>8</duration>
        </backup>
      <note default-x="15" default-y="-132.37">
        <pitch>
          <step>E</step>
          <octave>3</octave>
          </pitch>
        <duration>2</duration>
        <voice>5</voice>
        <type>quarter</type>
        <stem>none</stem>
        <staff>2</staff>
        <notations>
          <technical>
            <string>4</string>
            <fret>2</fret>
            </technical>
          </notations>
        </note>
      <note default-x="51.78" default-y="-117.37">
        <pitch>
          <step>G</step>
          <octave>3</octave>
          </pitch>
        <duration>2</duration>
        <voice>5</voice>
        <type>quarter</type>
        <stem>none</stem>
        <staff>2</staff>
        <notations>
          <technical>
            <string>3</string>
            <fret>0</fret>
            </technical>
          </notations>
        </note>
      <note default-x="88.56" default-y="-117.37">
        <pitch>
          <step>G</step>
          <octave>3</octave>
          </pitch>
        <duration>3</duration>
        <voice>5</voice>
        <type>quarter</type>
        <dot/>
        <stem>none</stem>
        <staff>2</staff>
        <notations>
          <technical>
            <string>3</string>
            <fret>0</fret>
            </technical>
          </notations>
        </note>
      <note default-x="135.18" default-y="-117.37">
        <pitch>
          <step>A</step>
          <octave>3</octave>
          </pitch>
        <duration>1</duration>
        <voice>5</voice>
        <type>eighth</type>
        <stem>none</stem>
        <staff>2</staff>
        <notations>
          <technical>
            <string>3</string>
            <fret>2</fret>
            </technical>
          </notations>
        </note>
      </measure>
    <measure number="3" width="168.04">
      <note default-x="12.5" default-y="-30">
        <pitch>
          <step>G</step>
          <octave>3</octave>
          </pitch>
        <duration>2</duration>
        <voice>1</voice>
        <type>quarter</type>
        <stem>up</stem>
        <staff>1</staff>
        </note>
      <note default-x="49.28" default-y="-40">
        <pitch>
          <step>E</step>
          <octave>3</octave>
          </pitch>
        <duration>2</duration>
        <voice>1</voice>
        <type>quarter</type>
        <stem>up</stem>
        <staff>1</staff>
        </note>
      <note default-x="86.06" default-y="-50">
        <pitch>
          <step>C</step>
          <octave>3</octave>
          </pitch>
        <duration>3</duration>
        <voice>1</voice>
        <type>quarter</type>
        <dot default-x="104.05" default-y="-45"/>
        <stem>up</stem>
        <staff>1</staff>
        </note>
      <note default-x="132.68" default-y="-45">
        <pitch>
          <step>D</step>
          <octave>3</octave>
          </pitch>
        <duration>1</duration>
        <voice>1</voice>
        <type>eighth</type>
        <stem>up</stem>
        <staff>1</staff>
        </note>
      <backup>
        <duration>8</duration>
        </backup>
      <note default-x="15" default-y="-117.37">
        <pitch>
          <step>G</step>
          <octave>3</octave>
          </pitch>
        <duration>2</duration>
        <voice>5</voice>
        <type>quarter</type>
        <stem>none</stem>
        <staff>2</staff>
        <notations>
          <technical>
            <string>3</string>
            <fret>0</fret>
            </technical>
          </notations>
        </note>
      <note default-x="51.78" default-y="-132.37">
        <pitch>
          <step>E</step>
          <octave>3</octave>
          </pitch>
        <duration>2</duration>
        <voice>5</voice>
        <type>quarter</type>
        <stem>none</stem>
        <staff>2</staff>
        <notations>
          <technical>
            <string>4</string>
            <fret>2</fret>
            </technical>
          </notations>
        </note>
      <note default-x="88.56" default-y="-147.37">
        <pitch>
          <step>C</step>
          <octave>3</octave>
          </pitch>
        <duration>3</duration>
        <voice>5</voice>
        <type>quarter</type>
        <dot/>
        <stem>none</stem>
        <staff>2</staff>
        <notations>
          <technical>
            <string>5</string>
            <fret>3</fret>
            </technical>
          </notations>
        </note>
      <note default-x="135.18" default-y="-132.37">
        <pitch>
          <step>D</step>
          <octave>3</octave>
          </pitch>
        <duration>1</duration>
        <voice>5</voice>
        <type>eighth</type>
        <stem>none</stem>
        <staff>2</staff>
        <notations>
          <technical>
            <string>4</string>
            <fret>0</fret>
            </technical>
          </notations>
        </note>
      </measure>
    <measure number="4" width="161.42">
      <note default-x="12.5" default-y="-40">
        <pitch>
          <step>E</step>
          <octave>3</octave>
          </pitch>
        <duration>2</duration>
        <voice>1</voice>
        <type>quarter</type>
        <stem>up</stem>
        <staff>1</staff>
        </note>
      <note default-x="49.28" default-y="-40">
        <pitch>
          <step>E</step>
          <octave>3</octave>
          </pitch>
        <duration>2</duration>
        <voice>1</voice>
        <type>quarter</type>
        <stem>up</stem>
        <staff>1</staff>
        </note>
      <note default-x="86.06" default-y="-45">
        <pitch>
          <step>D</step>
          <octave>3</octave>
          </pitch>
        <duration>2</duration>
        <voice>1</voice>
        <type>quarter</type>
        <stem>up</stem>
        <staff>1</staff>
        </note>
      <note default-x="122.84" default-y="-50">
        <pitch>
          <step>C</step>
          <octave>3</octave>
          </pitch>
        <duration>2</duration>
        <voice>1</voice>
        <type>quarter</type>
        <stem>up</stem>
        <staff>1</staff>
        </note>
      <backup>
        <duration>8</duration>
        </backup>
      <note default-x="15" default-y="-132.37">
        <pitch>
          <step>E</step>
          <octave>3</octave>
          </pitch>
        <duration>2</duration>
        <voice>5</voice>
        <type>quarter</type>
        <stem>none</stem>
        <staff>2</staff>
        <notations>
          <technical>
            <string>4</string>
            <fret>2</fret>
            </technical>
          </notations>
        </note>
      <note default-x="51.78" default-y="-132.37">
        <pitch>
          <step>E</step>
          <octave>3</octave>
          </pitch>
        <duration>2</duration>
        <voice>5</voice>
        <type>quarter</type>
        <stem>none</stem>
        <staff>2</staff>
        <notations>
          <technical>
            <string>4</string>
            <fret>2</fret>
            </technical>
          </notations>
        </note>
      <note default-x="88.56" default-y="-132.37">
        <pitch>
          <step>D</step>
          <octave>3</octave>
          </pitch>
        <duration>2</duration>
        <voice>5</voice>
        <type>quarter</type>
        <stem>none</stem>
        <staff>2</staff>
        <notations>
          <technical>
            <string>4</string>
            <fret>0</fret>
            </technical>
          </notations>
        </note>
      <note default-x="125.34" default-y="-147.37">
        <pitch>
          <step>C</step>
          <octave>3</octave>
          </pitch>
        <duration>2</duration>
        <voice>5</voice>
        <type>quarter</type>
        <stem>none</stem>
        <staff>2</staff>
        <notations>
          <technical>
            <string>5</string>
            <fret>3</fret>
            </technical>
          </notations>
        </note>
      </measure>
    <measure number="5" width="177.16">
      <note default-x="12.5" default-y="-45">
        <pitch>
          <step>D</step>
          <octave>3</octave>
          </pitch>
        <duration>2</duration>
        <voice>1</voice>
        <type>quarter</type>
        <stem>up</stem>
        <staff>1</staff>
        </note>
      <note default-x="49.28" default-y="-20">
        <rest/>
        <duration>2</duration>
        <voice>1</voice>
        <type>quarter</type>
        <staff>1</staff>
        </note>
      <note default-x="86.06" default-y="-20">
        <rest/>
        <duration>2</duration>
        <voice>1</voice>
        <type>quarter</type>
        <staff>1</staff>
        </note>
      <note default-x="122.84" default-y="-50">
        <pitch>
          <step>C</step>
          <octave>3</octave>
          </pitch>
        <duration>1</duration>
        <voice>1</voice>
        <type>eighth</type>
        <stem>up</stem>
        <staff>1</staff>
        <beam number="1">begin</beam>
        </note>
      <note default-x="147.36" default-y="-45">
        <pitch>
          <step>D</step>
          <octave>3</octave>
          </pitch>
        <duration>1</duration>
        <voice>1</voice>
        <type>eighth</type>
        <stem>up</stem>
        <staff>1</staff>
        <beam number="1">end</beam>
        </note>
      <backup>
        <duration>8</duration>
        </backup>
      <note default-x="15" default-y="-132.37">
        <pitch>
          <step>D</step>
          <octave>3</octave>
          </pitch>
        <duration>2</duration>
        <voice>5</voice>
        <type>quarter</type>
        <stem>none</stem>
        <staff>2</staff>
        <notations>
          <technical>
            <string>4</string>
            <fret>0</fret>
            </technical>
          </notations>
        </note>
      <note default-x="49.28" default-y="-132.37">
        <rest/>
        <duration>2</duration>
        <voice>5</voice>
        <type>quarter</type>
        <staff>2</staff>
        </note>
      <note default-x="86.06" default-y="-132.37">
        <rest/>
        <duration>2</duration>
        <voice>5</voice>
        <type>quarter</type>
        <staff>2</staff>
        </note>
      <note default-x="125.34" default-y="-147.37">
        <pitch>
          <step>C</step>
          <octave>3</octave>
          </pitch>
        <duration>1</duration>
        <voice>5</voice>
        <type>eighth</type>
        <stem>none</stem>
        <staff>2</staff>
        <notations>
          <technical>
            <string>5</string>
            <fret>3</fret>
            </technical>
          </notations>
        </note>
      <note default-x="149.86" default-y="-132.37">
        <pitch>
          <step>D</step>
          <octave>3</octave>
          </pitch>
        <duration>1</duration>
        <voice>5</voice>
        <type>eighth</type>
        <stem>none</stem>
        <staff>2</staff>
        <notations>
          <technical>
            <string>4</string>
            <fret>0</fret>
            </technical>
          </notations>
        </note>
      </measure>
    <measure number="6" width="168.04">
      <note default-x="12.5" default-y="-40">
        <pitch>
          <step>E</step>
          <octave>3</octave>
          </pitch>
        <duration>2</duration>
        <voice>1</voice>
        <type>quarter</type>
        <stem>up</stem>
        <staff>1</staff>
        </note>
      <note default-x="49.28" default-y="-30">
        <pitch>
          <step>G</step>
          <octave>3</octave>
          </pitch>
        <duration>2</duration>
        <voice>1</voice>
        <type>quarter</type>
        <stem>up</stem>
        <staff>1</staff>
        </note>
      <note default-x="86.06" default-y="-30">
        <pitch>
          <step>G</step>
          <octave>3</octave>
          </pitch>
        <duration>3</duration>
        <voice>1</voice>
        <type>quarter</type>
        <dot default-x="104.05" default-y="-25"/>
        <stem>up</stem>
        <staff>1</staff>
        </note>
      <note default-x="132.68" default-y="-25">
        <pitch>
          <step>A</step>
          <octave>3</octave>
          </pitch>
        <duration>1</duration>
        <voice>1</voice>
        <type>eighth</type>
        <stem>up</stem>
        <staff>1</staff>
        </note>
      <backup>
        <duration>8</duration>
        </backup>
      <note default-x="15" default-y="-132.37">
        <pitch>
          <step>E</step>
          <octave>3</octave>
          </pitch>
        <duration>2</duration>
        <voice>5</voice>
        <type>quarter</type>
        <stem>none</stem>
        <staff>2</staff>
        <notations>
          <technical>
            <string>4</string>
            <fret>2</fret>
            </technical>
          </notations>
        </note>
      <note default-x="51.78" default-y="-117.37">
        <pitch>
          <step>G</step>
          <octave>3</octave>
          </pitch>
        <duration>2</duration>
        <voice>5</voice>
        <type>quarter</type>
        <stem>none</stem>
        <staff>2</staff>
        <notations>
          <technical>
            <string>3</string>
            <fret>0</fret>
            </technical>
          </notations>
        </note>
      <note default-x="88.56" default-y="-117.37">
        <pitch>
          <step>G</step>
          <octave>3</octave>
          </pitch>
        <duration>3</duration>
        <voice>5</voice>
        <type>quarter</type>
        <dot/>
        <stem>none</stem>
        <staff>2</staff>
        <notations>
          <technical>
            <string>3</string>
            <fret>0</fret>
            </technical>
          </notations>
        </note>
      <note default-x="135.18" default-y="-117.37">
        <pitch>
          <step>A</step>
          <octave>3</octave>
          </pitch>
        <duration>1</duration>
        <voice>5</voice>
        <type>eighth</type>
        <stem>none</stem>
        <staff>2</staff>
        <notations>
          <technical>
            <string>3</string>
            <fret>2</fret>
            </technical>
          </notations>
        </note>
      </measure>
    <measure number="7" width="212.01">
      <print new-system="yes">
        <system-layout>
          <system-margins>
            <left-margin>0</left-margin>
            <right-margin>0</right-margin>
            </system-margins>
          <system-distance>118.41</system-distance>
          </system-layout>
        <staff-layout number="2">
          <staff-distance>47.37</staff-distance>
          </staff-layout>
        </print>
      <note default-x="59.89" default-y="-30">
        <pitch>
          <step>G</step>
          <octave>3</octave>
          </pitch>
        <duration>2</duration>
        <voice>1</voice>
        <type>quarter</type>
        <stem>up</stem>
        <staff>1</staff>
        </note>
      <note default-x="95.63" default-y="-40">
        <pitch>
          <step>E</step>
          <octave>3</octave>
          </pitch>
        <duration>2</duration>
        <voice>1</voice>
        <type>quarter</type>
        <stem>up</stem>
        <staff>1</staff>
        </note>
      <note default-x="131.36" default-y="-50">
        <pitch>
          <step>C</step>
          <octave>3</octave>
          </pitch>
        <duration>3</duration>
        <voice>1</voice>
        <type>quarter</type>
        <dot default-x="149.35" default-y="-45"/>
        <stem>up</stem>
        <staff>1</staff>
        </note>
      <note default-x="176.66" default-y="-45">
        <pitch>
          <step>D</step>
          <octave>3</octave>
          </pitch>
        <duration>1</duration>
        <voice>1</voice>
        <type>eighth</type>
        <stem>up</stem>
        <staff>1</staff>
        </note>
      <backup>
        <duration>8</duration>
        </backup>
      <note default-x="62.39" default-y="-117.37">
        <pitch>
          <step>G</step>
          <octave>3</octave>
          </pitch>
        <duration>2</duration>
        <voice>5</voice>
        <type>quarter</type>
        <stem>none</stem>
        <staff>2</staff>
        <notations>
          <technical>
            <string>3</string>
            <fret>0</fret>
            </technical>
          </notations>
        </note>
      <note default-x="98.12" default-y="-132.37">
        <pitch>
          <step>E</step>
          <octave>3</octave>
          </pitch>
        <duration>2</duration>
        <voice>5</voice>
        <type>quarter</type>
        <stem>none</stem>
        <staff>2</staff>
        <notations>
          <technical>
            <string>4</string>
            <fret>2</fret>
            </technical>
          </notations>
        </note>
      <note default-x="133.86" default-y="-147.37">
        <pitch>
          <step>C</step>
          <octave>3</octave>
          </pitch>
        <duration>3</duration>
        <voice>5</voice>
        <type>quarter</type>
        <dot/>
        <stem>none</stem>
        <staff>2</staff>
        <notations>
          <technical>
            <string>5</string>
            <fret>3</fret>
            </technical>
          </notations>
        </note>
      <note default-x="179.15" default-y="-132.37">
        <pitch>
          <step>D</step>
          <octave>3</octave>
          </pitch>
        <duration>1</duration>
        <voice>5</voice>
        <type>eighth</type>
        <stem>none</stem>
        <staff>2</staff>
        <notations>
          <technical>
            <string>4</string>
            <fret>0</fret>
            </technical>
          </notations>
        </note>
      </measure>
    <measure number="8" width="157.23">
      <note default-x="12.5" default-y="-40">
        <pitch>
          <step>E</step>
          <octave>3</octave>
          </pitch>
        <duration>2</duration>
        <voice>1</voice>
        <type>quarter</type>
        <stem>up</stem>
        <staff>1</staff>
        </note>
      <note default-x="48.23" default-y="-40">
        <pitch>
          <step>E</step>
          <octave>3</octave>
          </pitch>
        <duration>2</duration>
        <voice>1</voice>
        <type>quarter</type>
        <stem>up</stem>
        <staff>1</staff>
        </note>
      <note default-x="83.97" default-y="-45">
        <pitch>
          <step>D</step>
          <octave>3</octave>
          </pitch>
        <duration>2</duration>
        <voice>1</voice>
        <type>quarter</type>
        <stem>up</stem>
        <staff>1</staff>
        </note>
      <note default-x="119.7" default-y="-45">
        <pitch>
          <step>D</step>
          <octave>3</octave>
          </pitch>
        <duration>2</duration>
        <voice>1</voice>
        <type>quarter</type>
        <stem>up</stem>
        <staff>1</staff>
        </note>
      <backup>
        <duration>8</duration>
        </backup>
      <note default-x="15" default-y="-132.37">
        <pitch>
          <step>E</step>
          <octave>3</octave>
          </pitch>
        <duration>2</duration>
        <voice>5</voice>
        <type>quarter</type>
        <stem>none</stem>
        <staff>2</staff>
        <notations>
          <technical>
            <string>4</string>
            <fret>2</fret>
            </technical>
          </notations>
        </note>
      <note default-x="50.73" default-y="-132.37">
        <pitch>
          <step>E</step>
          <octave>3</octave>
          </pitch>
        <duration>2</duration>
        <voice>5</voice>
        <type>quarter</type>
        <stem>none</stem>
        <staff>2</staff>
        <notations>
          <technical>
            <string>4</string>
            <fret>2</fret>
            </technical>
          </notations>
        </note>
      <note default-x="86.46" default-y="-132.37">
        <pitch>
          <step>D</step>
          <octave>3</octave>
          </pitch>
        <duration>2</duration>
        <voice>5</voice>
        <type>quarter</type>
        <stem>none</stem>
        <staff>2</staff>
        <notations>
          <technical>
            <string>4</string>
            <fret>0</fret>
            </technical>
          </notations>
        </note>
      <note default-x="122.2" default-y="-132.37">
        <pitch>
          <step>D</step>
          <octave>3</octave>
          </pitch>
        <duration>2</duration>
        <voice>5</voice>
        <type>quarter</type>
        <stem>none</stem>
        <staff>2</staff>
        <notations>
          <technical>
            <string>4</string>
            <fret>0</fret>
            </technical>
          </notations>
        </note>
      </measure>
    <measure number="9" width="173.32">
      <note default-x="12.5" default-y="-50">
        <pitch>
          <step>C</step>
          <octave>3</octave>
          </pitch>
        <duration>2</duration>
        <voice>1</voice>
        <type>quarter</type>
        <stem>up</stem>
        <staff>1</staff>
        </note>
      <note default-x="48.23" default-y="-20">
        <rest/>
        <duration>2</duration>
        <voice>1</voice>
        <type>quarter</type>
        <staff>1</staff>
        </note>
      <note default-x="83.97" default-y="-20">
        <rest/>
        <duration>2</duration>
        <voice>1</voice>
        <type>quarter</type>
        <staff>1</staff>
        </note>
      <note default-x="119.7" default-y="-50">
        <pitch>
          <step>C</step>
          <octave>3</octave>
          </pitch>
        <duration>1</duration>
        <voice>1</voice>
        <type>eighth</type>
        <stem>up</stem>
        <staff>1</staff>
        <beam number="1">begin</beam>
        </note>
      <note default-x="143.52" default-y="-45">
        <pitch>
          <step>D</step>
          <octave>3</octave>
          </pitch>
        <duration>1</duration>
        <voice>1</voice>
        <type>eighth</type>
        <stem>up</stem>
        <staff>1</staff>
        <beam number="1">end</beam>
        </note>
      <backup>
        <duration>8</duration>
        </backup>
      <note default-x="15" default-y="-147.37">
        <pitch>
          <step>C</step>
          <octave>3</octave>
          </pitch>
        <duration>2</duration>
        <voice>5</voice>
        <type>quarter</type>
        <stem>none</stem>
        <staff>2</staff>
        <notations>
          <technical>
            <string>5</string>
            <fret>3</fret>
            </technical>
          </notations>
        </note>
      <note default-x="48.23" default-y="-132.37">
        <rest/>
        <duration>2</duration>
        <voice>5</voice>
        <type>quarter</type>
        <staff>2</staff>
        </note>
      <note default-x="83.97" default-y="-132.37">
        <rest/>
        <duration>2</duration>
        <voice>5</voice>
        <type>quarter</type>
        <staff>2</staff>
        </note>
      <note default-x="122.2" default-y="-147.37">
        <pitch>
          <step>C</step>
          <octave>3</octave>
          </pitch>
        <duration>1</duration>
        <voice>5</voice>
        <type>eighth</type>
        <stem>none</stem>
        <staff>2</staff>
        <notations>
          <technical>
            <string>5</string>
            <fret>3</fret>
            </technical>
          </notations>
        </note>
      <note default-x="146.02" default-y="-132.37">
        <pitch>
          <step>D</step>
          <octave>3</octave>
          </pitch>
        <duration>1</duration>
        <voice>5</voice>
        <type>eighth</type>
        <stem>none</stem>
        <staff>2</staff>
        <notations>
          <technical>
            <string>4</string>
            <fret>0</fret>
            </technical>
          </notations>
        </note>
      </measure>
    <measure number="10" width="164.62">
      <note default-x="12.5" default-y="-40">
        <pitch>
          <step>E</step>
          <octave>3</octave>
          </pitch>
        <duration>2</duration>
        <voice>1</voice>
        <type>quarter</type>
        <stem>up</stem>
        <staff>1</staff>
        </note>
      <note default-x="48.23" default-y="-30">
        <pitch>
          <step>G</step>
          <octave>3</octave>
          </pitch>
        <duration>2</duration>
        <voice>1</voice>
        <type>quarter</type>
        <stem>up</stem>
        <staff>1</staff>
        </note>
      <note default-x="83.97" default-y="-30">
        <pitch>
          <step>G</step>
          <octave>3</octave>
          </pitch>
        <duration>3</duration>
        <voice>1</voice>
        <type>quarter</type>
        <dot default-x="101.96" default-y="-25"/>
        <stem>up</stem>
        <staff>1</staff>
        </note>
      <note default-x="129.26" default-y="-25">
        <pitch>
          <step>A</step>
          <octave>3</octave>
          </pitch>
        <duration>1</duration>
        <voice>1</voice>
        <type>eighth</type>
        <stem>up</stem>
        <staff>1</staff>
        </note>
      <backup>
        <duration>8</duration>
        </backup>
      <note default-x="15" default-y="-132.37">
        <pitch>
          <step>E</step>
          <octave>3</octave>
          </pitch>
        <duration>2</duration>
        <voice>5</voice>
        <type>quarter</type>
        <stem>none</stem>
        <staff>2</staff>
        <notations>
          <technical>
            <string>4</string>
            <fret>2</fret>
            </technical>
          </notations>
        </note>
      <note default-x="50.73" default-y="-117.37">
        <pitch>
          <step>G</step>
          <octave>3</octave>
          </pitch>
        <duration>2</duration>
        <voice>5</voice>
        <type>quarter</type>
        <stem>none</stem>
        <staff>2</staff>
        <notations>
          <technical>
            <string>3</string>
            <fret>0</fret>
            </technical>
          </notations>
        </note>
      <note default-x="86.46" default-y="-117.37">
        <pitch>
          <step>G</step>
          <octave>3</octave>
          </pitch>
        <duration>3</duration>
        <voice>5</voice>
        <type>quarter</type>
        <dot/>
        <stem>none</stem>
        <staff>2</staff>
        <notations>
          <technical>
            <string>3</string>
            <fret>0</fret>
            </technical>
          </notations>
        </note>
      <note default-x="131.76" default-y="-117.37">
        <pitch>
          <step>A</step>
          <octave>3</octave>
          </pitch>
        <duration>1</duration>
        <voice>5</voice>
        <type>eighth</type>
        <stem>none</stem>
        <staff>2</staff>
        <notations>
          <technical>
            <string>3</string>
            <fret>2</fret>
            </technical>
          </notations>
        </note>
      </measure>
    <measure number="11" width="164.62">
      <note default-x="12.5" default-y="-30">
        <pitch>
          <step>G</step>
          <octave>3</octave>
          </pitch>
        <duration>2</duration>
        <voice>1</voice>
        <type>quarter</type>
        <stem>up</stem>
        <staff>1</staff>
        </note>
      <note default-x="48.23" default-y="-40">
        <pitch>
          <step>E</step>
          <octave>3</octave>
          </pitch>
        <duration>2</duration>
        <voice>1</voice>
        <type>quarter</type>
        <stem>up</stem>
        <staff>1</staff>
        </note>
      <note default-x="83.97" default-y="-50">
        <pitch>
          <step>C</step>
          <octave>3</octave>
          </pitch>
        <duration>3</duration>
        <voice>1</voice>
        <type>quarter</type>
        <dot default-x="101.96" default-y="-45"/>
        <stem>up</stem>
        <staff>1</staff>
        </note>
      <note default-x="129.26" default-y="-45">
        <pitch>
          <step>D</step>
          <octave>3</octave>
          </pitch>
        <duration>1</duration>
        <voice>1</voice>
        <type>eighth</type>
        <stem>up</stem>
        <staff>1</staff>
        </note>
      <backup>
        <duration>8</duration>
        </backup>
      <note default-x="15" default-y="-117.37">
        <pitch>
          <step>G</step>
          <octave>3</octave>
          </pitch>
        <duration>2</duration>
        <voice>5</voice>
        <type>quarter</type>
        <stem>none</stem>
        <staff>2</staff>
        <notations>
          <technical>
            <string>3</string>
            <fret>0</fret>
            </technical>
          </notations>
        </note>
      <note default-x="50.73" default-y="-132.37">
        <pitch>
          <step>E</step>
          <octave>3</octave>
          </pitch>
        <duration>2</duration>
        <voice>5</voice>
        <type>quarter</type>
        <stem>none</stem>
        <staff>2</staff>
        <notations>
          <technical>
            <string>4</string>
            <fret>2</fret>
            </technical>
          </notations>
        </note>
      <note default-x="86.46" default-y="-147.37">
        <pitch>
          <step>C</step>
          <octave>3</octave>
          </pitch>
        <duration>3</duration>
        <voice>5</voice>
        <type>quarter</type>
        <dot/>
        <stem>none</stem>
        <staff>2</staff>
        <notations>
          <technical>
            <string>5</string>
            <fret>3</fret>
            </technical>
          </notations>
        </note>
      <note default-x="131.76" default-y="-132.37">
        <pitch>
          <step>D</step>
          <octave>3</octave>
          </pitch>
        <duration>1</duration>
        <voice>5</voice>
        <type>eighth</type>
        <stem>none</stem>
        <staff>2</staff>
        <notations>
          <technical>
            <string>4</string>
            <fret>0</fret>
            </technical>
          </notations>
        </note>
      </measure>
    <measure number="12" width="157.23">
      <note default-x="12.5" default-y="-40">
        <pitch>
          <step>E</step>
          <octave>3</octave>
          </pitch>
        <duration>2</duration>
        <voice>1</voice>
        <type>quarter</type>
        <stem>up</stem>
        <staff>1</staff>
        </note>
      <note default-x="48.23" default-y="-40">
        <pitch>
          <step>E</step>
          <octave>3</octave>
          </pitch>
        <duration>2</duration>
        <voice>1</voice>
        <type>quarter</type>
        <stem>up</stem>
        <staff>1</staff>
        </note>
      <note default-x="83.97" default-y="-45">
        <pitch>
          <step>D</step>
          <octave>3</octave>
          </pitch>
        <duration>2</duration>
        <voice>1</voice>
        <type>quarter</type>
        <stem>up</stem>
        <staff>1</staff>
        </note>
      <note default-x="119.7" default-y="-50">
        <pitch>
          <step>C</step>
          <octave>3</octave>
          </pitch>
        <duration>2</duration>
        <voice>1</voice>
        <type>quarter</type>
        <stem>up</stem>
        <staff>1</staff>
        </note>
      <backup>
        <duration>8</duration>
        </backup>
      <note default-x="15" default-y="-132.37">
        <pitch>
          <step>E</step>
          <octave>3</octave>
          </pitch>
        <duration>2</duration>
        <voice>5</voice>
        <type>quarter</type>
        <stem>none</stem>
        <staff>2</staff>
        <notations>
          <technical>
            <string>4</string>
            <fret>2</fret>
            </technical>
          </notations>
        </note>
      <note default-x="50.73" default-y="-132.37">
        <pitch>
          <step>E</step>
          <octave>3</octave>
          </pitch>
        <duration>2</duration>
        <voice>5</voice>
        <type>quarter</type>
        <stem>none</stem>
        <staff>2</staff>
        <notations>
          <technical>
            <string>4</string>
            <fret>2</fret>
            </technical>
          </notations>
        </note>
      <note default-x="86.46" default-y="-132.37">
        <pitch>
          <step>D</step>
          <octave>3</octave>
          </pitch>
        <duration>2</duration>
        <voice>5</voice>
        <type>quarter</type>
        <stem>none</stem>
        <staff>2</staff>
        <notations>
          <technical>
            <string>4</string>
            <fret>0</fret>
            </technical>
          </notations>
        </note>
      <note default-x="122.2" default-y="-147.37">
        <pitch>
          <step>C</step>
          <octave>3</octave>
          </pitch>
        <duration>2</duration>
        <voice>5</voice>
        <type>quarter</type>
        <stem>none</stem>
        <staff>2</staff>
        <notations>
          <technical>
            <string>5</string>
            <fret>3</fret>
            </technical>
          </notations>
        </note>
      </measure>
    <measure number="13" width="221.93">
      <print new-system="yes">
        <system-layout>
          <system-margins>
            <left-margin>0</left-margin>
            <right-margin>0</right-margin>
            </system-margins>
          <system-distance>118.41</system-distance>
          </system-layout>
        <staff-layout number="2">
          <staff-distance>47.37</staff-distance>
          </staff-layout>
        </print>
      <note default-x="59.89" default-y="-45">
        <pitch>
          <step>D</step>
          <octave>3</octave>
          </pitch>
        <duration>2</duration>
        <voice>1</voice>
        <type>quarter</type>
        <stem>up</stem>
        <staff>1</staff>
        </note>
      <note default-x="95.96" default-y="-20">
        <rest/>
        <duration>2</duration>
        <voice>1</voice>
        <type>quarter</type>
        <staff>1</staff>
        </note>
      <note default-x="132.02" default-y="-20">
        <rest/>
        <duration>2</duration>
        <voice>1</voice>
        <type>quarter</type>
        <staff>1</staff>
        </note>
      <note default-x="168.09" default-y="-50">
        <pitch>
          <step>C</step>
          <octave>3</octave>
          </pitch>
        <duration>1</duration>
        <voice>1</voice>
        <type>eighth</type>
        <stem>up</stem>
        <staff>1</staff>
        <beam number="1">begin</beam>
        </note>
      <note default-x="192.13" default-y="-45">
        <pitch>
          <step>D</step>
          <octave>3</octave>
          </pitch>
        <duration>1</duration>
        <voice>1</voice>
        <type>eighth</type>
        <stem>up</stem>
        <staff>1</staff>
        <beam number="1">end</beam>
        </note>
      <backup>
        <duration>8</duration>
        </backup>
      <note default-x="62.39" default-y="-132.37">
        <pitch>
          <step>D</step>
          <octave>3</octave>
          </pitch>
        <duration>2</duration>
        <voice>5</voice>
        <type>quarter</type>
        <stem>none</stem>
        <staff>2</staff>
        <notations>
          <technical>
            <string>4</string>
            <fret>0</fret>
            </technical>
          </notations>
        </note>
      <note default-x="95.96" default-y="-132.37">
        <rest/>
        <duration>2</duration>
        <voice>5</voice>
        <type>quarter</type>
        <staff>2</staff>
        </note>
      <note default-x="132.02" default-y="-132.37">
        <rest/>
        <duration>2</duration>
        <voice>5</voice>
        <type>quarter</type>
        <staff>2</staff>
        </note>
      <note default-x="170.59" default-y="-147.37">
        <pitch>
          <step>C</step>
          <octave>3</octave>
          </pitch>
        <duration>1</duration>
        <voice>5</voice>
        <type>eighth</type>
        <stem>none</stem>
        <staff>2</staff>
        <notations>
          <technical>
            <string>5</string>
            <fret>3</fret>
            </technical>
          </notations>
        </note>
      <note default-x="194.63" default-y="-132.37">
        <pitch>
          <step>D</step>
          <octave>3</octave>
          </pitch>
        <duration>1</duration>
        <voice>5</voice>
        <type>eighth</type>
        <stem>none</stem>
        <staff>2</staff>
        <notations>
          <technical>
            <string>4</string>
            <fret>0</fret>
            </technical>
          </notations>
        </note>
      </measure>
    <measure number="14" width="165.71">
      <note default-x="12.5" default-y="-40">
        <pitch>
          <step>E</step>
          <octave>3</octave>
          </pitch>
        <duration>2</duration>
        <voice>1</voice>
        <type>quarter</type>
        <stem>up</stem>
        <staff>1</staff>
        </note>
      <note default-x="48.57" default-y="-30">
        <pitch>
          <step>G</step>
          <octave>3</octave>
          </pitch>
        <duration>2</duration>
        <voice>1</voice>
        <type>quarter</type>
        <stem>up</stem>
        <staff>1</staff>
        </note>
      <note default-x="84.63" default-y="-30">
        <pitch>
          <step>G</step>
          <octave>3</octave>
          </pitch>
        <duration>3</duration>
        <voice>1</voice>
        <type>quarter</type>
        <dot default-x="102.62" default-y="-25"/>
        <stem>up</stem>
        <staff>1</staff>
        </note>
      <note default-x="130.35" default-y="-25">
        <pitch>
          <step>A</step>
          <octave>3</octave>
          </pitch>
        <duration>1</duration>
        <voice>1</voice>
        <type>eighth</type>
        <stem>up</stem>
        <staff>1</staff>
        </note>
      <backup>
        <duration>8</duration>
        </backup>
      <note default-x="15" default-y="-132.37">
        <pitch>
          <step>E</step>
          <octave>3</octave>
          </pitch>
        <duration>2</duration>
        <voice>5</voice>
        <type>quarter</type>
        <stem>none</stem>
        <staff>2</staff>
        <notations>
          <technical>
            <string>4</string>
            <fret>2</fret>
            </technical>
          </notations>
        </note>
      <note default-x="51.06" default-y="-117.37">
        <pitch>
          <step>G</step>
          <octave>3</octave>
          </pitch>
        <duration>2</duration>
        <voice>5</voice>
        <type>quarter</type>
        <stem>none</stem>
        <staff>2</staff>
        <notations>
          <technical>
            <string>3</string>
            <fret>0</fret>
            </technical>
          </notations>
        </note>
      <note default-x="87.13" default-y="-117.37">
        <pitch>
          <step>G</step>
          <octave>3</octave>
          </pitch>
        <duration>3</duration>
        <voice>5</voice>
        <type>quarter</type>
        <dot/>
        <stem>none</stem>
        <staff>2</staff>
        <notations>
          <technical>
            <string>3</string>
            <fret>0</fret>
            </technical>
          </notations>
        </note>
      <note default-x="132.85" default-y="-117.37">
        <pitch>
          <step>A</step>
          <octave>3</octave>
          </pitch>
        <duration>1</duration>
        <voice>5</voice>
        <type>eighth</type>
        <stem>none</stem>
        <staff>2</staff>
        <notations>
          <technical>
            <string>3</string>
            <fret>2</fret>
            </technical>
          </notations>
        </note>
      </measure>
    <measure number="15" width="165.71">
      <note default-x="12.5" default-y="-30">
        <pitch>
          <step>G</step>
          <octave>3</octave>
          </pitch>
        <duration>2</duration>
        <voice>1</voice>
        <type>quarter</type>
        <stem>up</stem>
        <staff>1</staff>
        </note>
      <note default-x="48.57" default-y="-40">
        <pitch>
          <step>E</step>
          <octave>3</octave>
          </pitch>
        <duration>2</duration>
        <voice>1</voice>
        <type>quarter</type>
        <stem>up</stem>
        <staff>1</staff>
        </note>
      <note default-x="84.63" default-y="-50">
        <pitch>
          <step>C</step>
          <octave>3</octave>
          </pitch>
        <duration>3</duration>
        <voice>1</voice>
        <type>quarter</type>
        <dot default-x="102.62" default-y="-45"/>
        <stem>up</stem>
        <staff>1</staff>
        </note>
      <note default-x="130.35" default-y="-45">
        <pitch>
          <step>D</step>
          <octave>3</octave>
          </pitch>
        <duration>1</duration>
        <voice>1</voice>
        <type>eighth</type>
        <stem>up</stem>
        <staff>1</staff>
        </note>
      <backup>
        <duration>8</duration>
        </backup>
      <note default-x="15" default-y="-117.37">
        <pitch>
          <step>G</step>
          <octave>3</octave>
          </pitch>
        <duration>2</duration>
        <voice>5</voice>
        <type>quarter</type>
        <stem>none</stem>
        <staff>2</staff>
        <notations>
          <technical>
            <string>3</string>
            <fret>0</fret>
            </technical>
          </notations>
        </note>
      <note default-x="51.06" default-y="-132.37">
        <pitch>
          <step>E</step>
          <octave>3</octave>
          </pitch>
        <duration>2</duration>
        <voice>5</voice>
        <type>quarter</type>
        <stem>none</stem>
        <staff>2</staff>
        <notations>
          <technical>
            <string>4</string>
            <fret>2</fret>
            </technical>
          </notations>
        </note>
      <note default-x="87.13" default-y="-147.37">
        <pitch>
          <step>C</step>
          <octave>3</octave>
          </pitch>
        <duration>3</duration>
        <voice>5</voice>
        <type>quarter</type>
        <dot/>
        <stem>none</stem>
        <staff>2</staff>
        <notations>
          <technical>
            <string>5</string>
            <fret>3</fret>
            </technical>
          </notations>
        </note>
      <note default-x="132.85" default-y="-132.37">
        <pitch>
          <step>D</step>
          <octave>3</octave>
          </pitch>
        <duration>1</duration>
        <voice>5</voice>
        <type>eighth</type>
        <stem>none</stem>
        <staff>2</staff>
        <notations>
          <technical>
            <string>4</string>
            <fret>0</fret>
            </technical>
          </notations>
        </note>
      </measure>
    <measure number="16" width="158.56">
      <note default-x="12.5" default-y="-40">
        <pitch>
          <step>E</step>
          <octave>3</octave>
          </pitch>
        <duration>2</duration>
        <voice>1</voice>
        <type>quarter</type>
        <stem>up</stem>
        <staff>1</staff>
        </note>
      <note default-x="48.57" default-y="-40">
        <pitch>
          <step>E</step>
          <octave>3</octave>
          </pitch>
        <duration>2</duration>
        <voice>1</voice>
        <type>quarter</type>
        <stem>up</stem>
        <staff>1</staff>
        </note>
      <note default-x="84.63" default-y="-45">
        <pitch>
          <step>D</step>
          <octave>3</octave>
          </pitch>
        <duration>2</duration>
        <voice>1</voice>
        <type>quarter</type>
        <stem>up</stem>
        <staff>1</staff>
        </note>
      <note default-x="120.7" default-y="-45">
        <pitch>
          <step>D</step>
          <octave>3</octave>
          </pitch>
        <duration>2</duration>
        <voice>1</voice>
        <type>quarter</type>
        <stem>up</stem>
        <staff>1</staff>
        </note>
      <backup>
        <duration>8</duration>
        </backup>
      <note default-x="15" default-y="-132.37">
        <pitch>
          <step>E</step>
          <octave>3</octave>
          </pitch>
        <duration>2</duration>
        <voice>5</voice>
        <type>quarter</type>
        <stem>none</stem>
        <staff>2</staff>
        <notations>
          <technical>
            <string>4</string>
            <fret>2</fret>
            </technical>
          </notations>
        </note>
      <note default-x="51.06" default-y="-132.37">
        <pitch>
          <step>E</step>
          <octave>3</octave>
          </pitch>
        <duration>2</duration>
        <voice>5</voice>
        <type>quarter</type>
        <stem>none</stem>
        <staff>2</staff>
        <notations>
          <technical>
            <string>4</string>
            <fret>2</fret>
            </technical>
          </notations>
        </note>
      <note default-x="87.13" default-y="-132.37">
        <pitch>
          <step>D</step>
          <octave>3</octave>
          </pitch>
        <duration>2</duration>
        <voice>5</voice>
        <type>quarter</type>
        <stem>none</stem>
        <staff>2</staff>
        <notations>
          <technical>
            <string>4</string>
            <fret>0</fret>
            </technical>
          </notations>
        </note>
      <note default-x="123.19" default-y="-132.37">
        <pitch>
          <step>D</step>
          <octave>3</octave>
          </pitch>
        <duration>2</duration>
        <voice>5</voice>
        <type>quarter</type>
        <stem>none</stem>
        <staff>2</staff>
        <notations>
          <technical>
            <string>4</string>
            <fret>0</fret>
            </technical>
          </notations>
        </note>
      </measure>
    <measure number="17" width="158.56">
      <note default-x="12.5" default-y="-50">
        <pitch>
          <step>C</step>
          <octave>3</octave>
          </pitch>
        <duration>2</duration>
        <voice>1</voice>
        <type>quarter</type>
        <stem>up</stem>
        <staff>1</staff>
        </note>
      <note default-x="48.57" default-y="-20">
        <rest/>
        <duration>2</duration>
        <voice>1</voice>
        <type>quarter</type>
        <staff>1</staff>
        </note>
      <note default-x="84.63" default-y="-20">
        <rest/>
        <duration>2</duration>
        <voice>1</voice>
        <type>quarter</type>
        <staff>1</staff>
        </note>
      <note default-x="120.7" default-y="-20">
        <rest/>
        <duration>2</duration>
        <voice>1</voice>
        <type>quarter</type>
        <staff>1</staff>
        </note>
      <backup>
        <duration>8</duration>
        </backup>
      <note default-x="15" default-y="-147.37">
        <pitch>
          <step>C</step>
          <octave>3</octave>
          </pitch>
        <duration>2</duration>
        <voice>5</voice>
        <type>quarter</type>
        <stem>none</stem>
        <staff>2</staff>
        <notations>
          <technical>
            <string>5</string>
            <fret>3</fret>
            </technical>
          </notations>
        </note>
      <note default-x="48.57" default-y="-132.37">
        <rest/>
        <duration>2</duration>
        <voice>5</voice>
        <type>quarter</type>
        <staff>2</staff>
        </note>
      <note default-x="84.63" default-y="-132.37">
        <rest/>
        <duration>2</duration>
        <voice>5</voice>
        <type>quarter</type>
        <staff>2</staff>
        </note>
      <note default-x="120.7" default-y="-132.37">
        <rest/>
        <duration>2</duration>
        <voice>5</voice>
        <type>quarter</type>
        <staff>2</staff>
        </note>
      </measure>
    <measure number="18" width="158.56">
      <note default-x="12.5" default-y="-35">
        <pitch>
          <step>F</step>
          <octave>3</octave>
          </pitch>
        <duration>2</duration>
        <voice>1</voice>
        <type>quarter</type>
        <stem>up</stem>
        <staff>1</staff>
        </note>
      <note default-x="48.57" default-y="-20">
        <rest/>
        <duration>2</duration>
        <voice>1</voice>
        <type>quarter</type>
        <staff>1</staff>
        </note>
      <note default-x="84.63" default-y="-35">
        <pitch>
          <step>F</step>
          <octave>3</octave>
          </pitch>
        <duration>2</duration>
        <voice>1</voice>
        <type>quarter</type>
        <stem>up</stem>
        <staff>1</staff>
        </note>
      <note default-x="120.7" default-y="-20">
        <rest/>
        <duration>2</duration>
        <voice>1</voice>
        <type>quarter</type>
        <staff>1</staff>
        </note>
      <backup>
        <duration>8</duration>
        </backup>
      <note default-x="15" default-y="-132.37">
        <pitch>
          <step>F</step>
          <octave>3</octave>
          </pitch>
        <duration>2</duration>
        <voice>5</voice>
        <type>quarter</type>
        <stem>none</stem>
        <staff>2</staff>
        <notations>
          <technical>
            <string>4</string>
            <fret>3</fret>
            </technical>
          </notations>
        </note>
      <note default-x="48.57" default-y="-132.37">
        <rest/>
        <duration>2</duration>
        <voice>5</voice>
        <type>quarter</type>
        <staff>2</staff>
        </note>
      <note default-x="87.13" default-y="-132.37">
        <pitch>
          <step>F</step>
          <octave>3</octave>
          </pitch>
        <duration>2</duration>
        <voice>5</voice>
        <type>quarter</type>
        <stem>none</stem>
        <staff>2</staff>
        <notations>
          <technical>
            <string>4</string>
            <fret>3</fret>
            </technical>
          </notations>
        </note>
      <note default-x="120.7" default-y="-132.37">
        <rest/>
        <duration>2</duration>
        <voice>5</voice>
        <type>quarter</type>
        <staff>2</staff>
        </note>
      </measure>
    <measure number="19" width="205.96">
      <print new-system="yes">
        <system-layout>
          <system-margins>
            <left-margin>0</left-margin>
            <right-margin>0</right-margin>
            </system-margins>
          <system-distance>118.41</system-distance>
          </system-layout>
        <staff-layout number="2">
          <staff-distance>47.37</staff-distance>
          </staff-layout>
        </print>
      <note default-x="59.89" default-y="-25">
        <pitch>
          <step>A</step>
          <octave>3</octave>
          </pitch>
        <duration>2</duration>
        <voice>1</voice>
        <type>quarter</type>
        <stem>up</stem>
        <staff>1</staff>
        </note>
      <note default-x="95.96" default-y="-25">
        <pitch>
          <step>A</step>
          <octave>3</octave>
          </pitch>
        <duration>2</duration>
        <voice>1</voice>
        <type>quarter</type>
        <stem>up</stem>
        <staff>1</staff>
        </note>
      <note default-x="132.02" default-y="-20">
        <rest/>
        <duration>2</duration>
        <voice>1</voice>
        <type>quarter</type>
        <staff>1</staff>
        </note>
      <note default-x="168.09" default-y="-25">
        <pitch>
          <step>A</step>
          <octave>3</octave>
          </pitch>
        <duration>2</duration>
        <voice>1</voice>
        <type>quarter</type>
        <stem>up</stem>
        <staff>1</staff>
        </note>
      <backup>
        <duration>8</duration>
        </backup>
      <note default-x="62.39" default-y="-117.37">
        <pitch>
          <step>A</step>
          <octave>3</octave>
          </pitch>
        <duration>2</duration>
        <voice>5</voice>
        <type>quarter</type>
        <stem>none</stem>
        <staff>2</staff>
        <notations>
          <technical>
            <string>3</string>
            <fret>2</fret>
            </technical>
          </notations>
        </note>
      <note default-x="98.46" default-y="-117.37">
        <pitch>
          <step>A</step>
          <octave>3</octave>
          </pitch>
        <duration>2</duration>
        <voice>5</voice>
        <type>quarter</type>
        <stem>none</stem>
        <staff>2</staff>
        <notations>
          <technical>
            <string>3</string>
            <fret>2</fret>
            </technical>
          </notations>
        </note>
      <note default-x="132.02" default-y="-132.37">
        <rest/>
        <duration>2</duration>
        <voice>5</voice>
        <type>quarter</type>
        <staff>2</staff>
        </note>
      <note default-x="170.59" default-y="-117.37">
        <pitch>
          <step>A</step>
          <octave>3</octave>
          </pitch>
        <duration>2</duration>
        <voice>5</voice>
        <type>quarter</type>
        <stem>none</stem>
        <staff>2</staff>
        <notations>
          <technical>
            <string>3</string>
            <fret>2</fret>
            </technical>
          </notations>
        </note>
      </measure>
    <measure number="20" width="158.56">
      <note default-x="12.5" default-y="-30">
        <pitch>
          <step>G</step>
          <octave>3</octave>
          </pitch>
        <duration>2</duration>
        <voice>1</voice>
        <type>quarter</type>
        <stem>up</stem>
        <staff>1</staff>
        </note>
      <note default-x="48.57" default-y="-30">
        <pitch>
          <step>G</step>
          <octave>3</octave>
          </pitch>
        <duration>2</duration>
        <voice>1</voice>
        <type>quarter</type>
        <stem>up</stem>
        <staff>1</staff>
        </note>
      <note default-x="84.63" default-y="-40">
        <pitch>
          <step>E</step>
          <octave>3</octave>
          </pitch>
        <duration>2</duration>
        <voice>1</voice>
        <type>quarter</type>
        <stem>up</stem>
        <staff>1</staff>
        </note>
      <note default-x="120.7" default-y="-50">
        <pitch>
          <step>C</step>
          <octave>3</octave>
          </pitch>
        <duration>2</duration>
        <voice>1</voice>
        <type>quarter</type>
        <stem>up</stem>
        <staff>1</staff>
        </note>
      <backup>
        <duration>8</duration>
        </backup>
      <note default-x="15" default-y="-117.37">
        <pitch>
          <step>G</step>
          <octave>3</octave>
          </pitch>
        <duration>2</duration>
        <voice>5</voice>
        <type>quarter</type>
        <stem>none</stem>
        <staff>2</staff>
        <notations>
          <technical>
            <string>3</string>
            <fret>0</fret>
            </technical>
          </notations>
        </note>
      <note default-x="51.06" default-y="-117.37">
        <pitch>
          <step>G</step>
          <octave>3</octave>
          </pitch>
        <duration>2</duration>
        <voice>5</voice>
        <type>quarter</type>
        <stem>none</stem>
        <staff>2</staff>
        <notations>
          <technical>
            <string>3</string>
            <fret>0</fret>
            </technical>
          </notations>
        </note>
      <note default-x="87.13" default-y="-132.37">
        <pitch>
          <step>E</step>
          <octave>3</octave>
          </pitch>
        <duration>2</duration>
        <voice>5</voice>
        <type>quarter</type>
        <stem>none</stem>
        <staff>2</staff>
        <notations>
          <technical>
            <string>4</string>
            <fret>2</fret>
            </technical>
          </notations>
        </note>
      <note default-x="123.19" default-y="-147.37">
        <pitch>
          <step>C</step>
          <octave>3</octave>
          </pitch>
        <duration>2</duration>
        <voice>5</voice>
        <type>quarter</type>
        <stem>none</stem>
        <staff>2</staff>
        <notations>
          <technical>
            <string>5</string>
            <fret>3</fret>
            </technical>
          </notations>
        </note>
      </measure>
    <measure number="21" width="174.54">
      <note default-x="12.5" default-y="-45">
        <pitch>
          <step>D</step>
          <octave>3</octave>
          </pitch>
        <duration>2</duration>
        <voice>1</voice>
        <type>quarter</type>
        <stem>up</stem>
        <staff>1</staff>
        </note>
      <note default-x="48.57" default-y="-20">
        <rest/>
        <duration>2</duration>
        <voice>1</voice>
        <type>quarter</type>
        <staff>1</staff>
        </note>
      <note default-x="84.63" default-y="-20">
        <rest/>
        <duration>2</duration>
        <voice>1</voice>
        <type>quarter</type>
        <staff>1</staff>
        </note>
      <note default-x="120.7" default-y="-50">
        <pitch>
          <step>C</step>
          <octave>3</octave>
          </pitch>
        <duration>1</duration>
        <voice>1</voice>
        <type>eighth</type>
        <stem>up</stem>
        <staff>1</staff>
        <beam number="1">begin</beam>
        </note>
      <note default-x="144.74" default-y="-45">
        <pitch>
          <step>D</step>
          <octave>3</octave>
          </pitch>
        <duration>1</duration>
        <voice>1</voice>
        <type>eighth</type>
        <stem>up</stem>
        <staff>1</staff>
        <beam number="1">end</beam>
        </note>
      <backup>
        <duration>8</duration>
        </backup>
      <note default-x="15" default-y="-132.37">
        <pitch>
          <step>D</step>
          <octave>3</octave>
          </pitch>
        <duration>2</duration>
        <voice>5</voice>
        <type>quarter</type>
        <stem>none</stem>
        <staff>2</staff>
        <notations>
          <technical>
            <string>4</string>
            <fret>0</fret>
            </technical>
          </notations>
        </note>
      <note default-x="48.57" default-y="-132.37">
        <rest/>
        <duration>2</duration>
        <voice>5</voice>
        <type>quarter</type>
        <staff>2</staff>
        </note>
      <note default-x="84.63" default-y="-132.37">
        <rest/>
        <duration>2</duration>
        <voice>5</voice>
        <type>quarter</type>
        <staff>2</staff>
        </note>
      <note default-x="123.19" default-y="-147.37">
        <pitch>
          <step>C</step>
          <octave>3</octave>
          </pitch>
        <duration>1</duration>
        <voice>5</voice>
        <type>eighth</type>
        <stem>none</stem>
        <staff>2</staff>
        <notations>
          <technical>
            <string>5</string>
            <fret>3</fret>
            </technical>
          </notations>
        </note>
      <note default-x="147.24" default-y="-132.37">
        <pitch>
          <step>D</step>
          <octave>3</octave>
          </pitch>
        <duration>1</duration>
        <voice>5</voice>
        <type>eighth</type>
        <stem>none</stem>
        <staff>2</staff>
        <notations>
          <technical>
            <string>4</string>
            <fret>0</fret>
            </technical>
          </notations>
        </note>
      </measure>
    <measure number="22" width="165.71">
      <note default-x="12.5" default-y="-40">
        <pitch>
          <step>E</step>
          <octave>3</octave>
          </pitch>
        <duration>2</duration>
        <voice>1</voice>
        <type>quarter</type>
        <stem>up</stem>
        <staff>1</staff>
        </note>
      <note default-x="48.57" default-y="-30">
        <pitch>
          <step>G</step>
          <octave>3</octave>
          </pitch>
        <duration>2</duration>
        <voice>1</voice>
        <type>quarter</type>
        <stem>up</stem>
        <staff>1</staff>
        </note>
      <note default-x="84.63" default-y="-30">
        <pitch>
          <step>G</step>
          <octave>3</octave>
          </pitch>
        <duration>3</duration>
        <voice>1</voice>
        <type>quarter</type>
        <dot default-x="102.62" default-y="-25"/>
        <stem>up</stem>
        <staff>1</staff>
        </note>
      <note default-x="130.35" default-y="-25">
        <pitch>
          <step>A</step>
          <octave>3</octave>
          </pitch>
        <duration>1</duration>
        <voice>1</voice>
        <type>eighth</type>
        <stem>up</stem>
        <staff>1</staff>
        </note>
      <backup>
        <duration>8</duration>
        </backup>
      <note default-x="15" default-y="-132.37">
        <pitch>
          <step>E</step>
          <octave>3</octave>
          </pitch>
        <duration>2</duration>
        <voice>5</voice>
        <type>quarter</type>
        <stem>none</stem>
        <staff>2</staff>
        <notations>
          <technical>
            <string>4</string>
            <fret>2</fret>
            </technical>
          </notations>
        </note>
      <note default-x="51.06" default-y="-117.37">
        <pitch>
          <step>G</step>
          <octave>3</octave>
          </pitch>
        <duration>2</duration>
        <voice>5</voice>
        <type>quarter</type>
        <stem>none</stem>
        <staff>2</staff>
        <notations>
          <technical>
            <string>3</string>
            <fret>0</fret>
            </technical>
          </notations>
        </note>
      <note default-x="87.13" default-y="-117.37">
        <pitch>
          <step>G</step>
          <octave>3</octave>
          </pitch>
        <duration>3</duration>
        <voice>5</voice>
        <type>quarter</type>
        <dot/>
        <stem>none</stem>
        <staff>2</staff>
        <notations>
          <technical>
            <string>3</string>
            <fret>0</fret>
            </technical>
          </notations>
        </note>
      <note default-x="132.85" default-y="-117.37">
        <pitch>
          <step>A</step>
          <octave>3</octave>
          </pitch>
        <duration>1</duration>
        <voice>5</voice>
        <type>eighth</type>
        <stem>none</stem>
        <staff>2</staff>
        <notations>
          <technical>
            <string>3</string>
            <fret>2</fret>
            </technical>
          </notations>
        </note>
      </measure>
    <measure number="23" width="165.71">
      <note default-x="12.5" default-y="-30">
        <pitch>
          <step>G</step>
          <octave>3</octave>
          </pitch>
        <duration>2</duration>
        <voice>1</voice>
        <type>quarter</type>
        <stem>up</stem>
        <staff>1</staff>
        </note>
      <note default-x="48.57" default-y="-40">
        <pitch>
          <step>E</step>
          <octave>3</octave>
          </pitch>
        <duration>2</duration>
        <voice>1</voice>
        <type>quarter</type>
        <stem>up</stem>
        <staff>1</staff>
        </note>
      <note default-x="84.63" default-y="-50">
        <pitch>
          <step>C</step>
          <octave>3</octave>
          </pitch>
        <duration>3</duration>
        <voice>1</voice>
        <type>quarter</type>
        <dot default-x="102.62" default-y="-45"/>
        <stem>up</stem>
        <staff>1</staff>
        </note>
      <note default-x="130.35" default-y="-45">
        <pitch>
          <step>D</step>
          <octave>3</octave>
          </pitch>
        <duration>1</duration>
        <voice>1</voice>
        <type>eighth</type>
        <stem>up</stem>
        <staff>1</staff>
        </note>
      <backup>
        <duration>8</duration>
        </backup>
      <note default-x="15" default-y="-117.37">
        <pitch>
          <step>G</step>
          <octave>3</octave>
          </pitch>
        <duration>2</duration>
        <voice>5</voice>
        <type>quarter</type>
        <stem>none</stem>
        <staff>2</staff>
        <notations>
          <technical>
            <string>3</string>
            <fret>0</fret>
            </technical>
          </notations>
        </note>
      <note default-x="51.06" default-y="-132.37">
        <pitch>
          <step>E</step>
          <octave>3</octave>
          </pitch>
        <duration>2</duration>
        <voice>5</voice>
        <type>quarter</type>
        <stem>none</stem>
        <staff>2</staff>
        <notations>
          <technical>
            <string>4</string>
            <fret>2</fret>
            </technical>
          </notations>
        </note>
      <note default-x="87.13" default-y="-147.37">
        <pitch>
          <step>C</step>
          <octave>3</octave>
          </pitch>
        <duration>3</duration>
        <voice>5</voice>
        <type>quarter</type>
        <dot/>
        <stem>none</stem>
        <staff>2</staff>
        <notations>
          <technical>
            <string>5</string>
            <fret>3</fret>
            </technical>
          </notations>
        </note>
      <note default-x="132.85" default-y="-132.37">
        <pitch>
          <step>D</step>
          <octave>3</octave>
          </pitch>
        <duration>1</duration>
        <voice>5</voice>
        <type>eighth</type>
        <stem>none</stem>
        <staff>2</staff>
        <notations>
          <technical>
            <string>4</string>
            <fret>0</fret>
            </technical>
          </notations>
        </note>
      </measure>
    <measure number="24" width="158.56">
      <note default-x="12.5" default-y="-40">
        <pitch>
          <step>E</step>
          <octave>3</octave>
          </pitch>
        <duration>2</duration>
        <voice>1</voice>
        <type>quarter</type>
        <stem>up</stem>
        <staff>1</staff>
        </note>
      <note default-x="48.57" default-y="-40">
        <pitch>
          <step>E</step>
          <octave>3</octave>
          </pitch>
        <duration>2</duration>
        <voice>1</voice>
        <type>quarter</type>
        <stem>up</stem>
        <staff>1</staff>
        </note>
      <note default-x="84.63" default-y="-45">
        <pitch>
          <step>D</step>
          <octave>3</octave>
          </pitch>
        <duration>2</duration>
        <voice>1</voice>
        <type>quarter</type>
        <stem>up</stem>
        <staff>1</staff>
        </note>
      <note default-x="120.7" default-y="-45">
        <pitch>
          <step>D</step>
          <octave>3</octave>
          </pitch>
        <duration>2</duration>
        <voice>1</voice>
        <type>quarter</type>
        <stem>up</stem>
        <staff>1</staff>
        </note>
      <backup>
        <duration>8</duration>
        </backup>
      <note default-x="15" default-y="-132.37">
        <pitch>
          <step>E</step>
          <octave>3</octave>
          </pitch>
        <duration>2</duration>
        <voice>5</voice>
        <type>quarter</type>
        <stem>none</stem>
        <staff>2</staff>
        <notations>
          <technical>
            <string>4</string>
            <fret>2</fret>
            </technical>
          </notations>
        </note>
      <note default-x="51.06" default-y="-132.37">
        <pitch>
          <step>E</step>
          <octave>3</octave>
          </pitch>
        <duration>2</duration>
        <voice>5</voice>
        <type>quarter</type>
        <stem>none</stem>
        <staff>2</staff>
        <notations>
          <technical>
            <string>4</string>
            <fret>2</fret>
            </technical>
          </notations>
        </note>
      <note default-x="87.13" default-y="-132.37">
        <pitch>
          <step>D</step>
          <octave>3</octave>
          </pitch>
        <duration>2</duration>
        <voice>5</voice>
        <type>quarter</type>
        <stem>none</stem>
        <staff>2</staff>
        <notations>
          <technical>
            <string>4</string>
            <fret>0</fret>
            </technical>
          </notations>
        </note>
      <note default-x="123.19" default-y="-132.37">
        <pitch>
          <step>D</step>
          <octave>3</octave>
          </pitch>
        <duration>2</duration>
        <voice>5</voice>
        <type>quarter</type>
        <stem>none</stem>
        <staff>2</staff>
        <notations>
          <technical>
            <string>4</string>
            <fret>0</fret>
            </technical>
          </notations>
        </note>
      </measure>
    <measure number="25" width="316.2">
      <print new-system="yes">
        <system-layout>
          <system-margins>
            <left-margin>0</left-margin>
            <right-margin>0</right-margin>
            </system-margins>
          <system-distance>118.41</system-distance>
          </system-layout>
        <staff-layout number="2">
          <staff-distance>47.37</staff-distance>
          </staff-layout>
        </print>
      <note default-x="59.89" default-y="-50">
        <pitch>
          <step>C</step>
          <octave>3</octave>
          </pitch>
        <duration>2</duration>
        <voice>1</voice>
        <type>quarter</type>
        <stem>up</stem>
        <staff>1</staff>
        </note>
      <note default-x="118.63" default-y="-20">
        <rest/>
        <duration>2</duration>
        <voice>1</voice>
        <type>quarter</type>
        <staff>1</staff>
        </note>
      <note default-x="177.36" default-y="-20">
        <rest/>
        <duration>2</duration>
        <voice>1</voice>
        <type>quarter</type>
        <staff>1</staff>
        </note>
      <note default-x="236.09" default-y="-20">
        <rest/>
        <duration>1</duration>
        <voice>1</voice>
        <type>eighth</type>
        <staff>1</staff>
        </note>
      <note default-x="275.24" default-y="-20">
        <rest/>
        <duration>1</duration>
        <voice>1</voice>
        <type>eighth</type>
        <staff>1</staff>
        </note>
      <backup>
        <duration>8</duration>
        </backup>
      <note default-x="62.39" default-y="-147.37">
        <pitch>
          <step>C</step>
          <octave>3</octave>
          </pitch>
        <duration>2</duration>
        <voice>5</voice>
        <type>quarter</type>
        <stem>none</stem>
        <staff>2</staff>
        <notations>
          <technical>
            <string>5</string>
            <fret>3</fret>
            </technical>
          </notations>
        </note>
      <note default-x="118.63" default-y="-132.37">
        <rest/>
        <duration>2</duration>
        <voice>5</voice>
        <type>quarter</type>
        <staff>2</staff>
        </note>
      <note default-x="177.36" default-y="-132.37">
        <rest/>
        <duration>2</duration>
        <voice>5</voice>
        <type>quarter</type>
        <staff>2</staff>
        </note>
      <note default-x="236.09" default-y="-132.37">
        <rest/>
        <duration>1</duration>
        <voice>5</voice>
        <type>eighth</type>
        <staff>2</staff>
        </note>
      <note default-x="275.24" default-y="-132.37">
        <rest/>
        <duration>1</duration>
        <voice>5</voice>
        <type>eighth</type>
        <staff>2</staff>
        </note>
      </measure>
    <measure number="26" width="307.96">
      <note default-x="12.5" default-y="-15">
        <pitch>
          <step>C</step>
          <octave>4</octave>
          </pitch>
        <duration>2</duration>
        <voice>1</voice>
        <type>quarter</type>
        <stem>down</stem>
        <staff>1</staff>
        </note>
      <note default-x="71.23" default-y="-15">
        <pitch>
          <step>C</step>
          <octave>4</octave>
          </pitch>
        <duration>1</duration>
        <voice>1</voice>
        <type>eighth</type>
        <stem>up</stem>
        <staff>1</staff>
        <beam number="1">begin</beam>
        </note>
      <note default-x="110.39" default-y="-30">
        <pitch>
          <step>G</step>
          <octave>3</octave>
          </pitch>
        <duration>1</duration>
        <voice>1</voice>
        <type>eighth</type>
        <stem>up</stem>
        <staff>1</staff>
        <beam number="1">end</beam>
        </note>
      <note default-x="149.54" default-y="-35">
        <pitch>
          <step>F</step>
          <alter>1</alter>
          <octave>3</octave>
          </pitch>
        <duration>1</duration>
        <voice>1</voice>
        <type>eighth</type>
        <accidental>sharp</accidental>
        <stem>up</stem>
        <staff>1</staff>
        <beam number="1">begin</beam>
        </note>
      <note default-x="188.7" default-y="-30">
        <pitch>
          <step>G</step>
          <octave>3</octave>
          </pitch>
        <duration>1</duration>
        <voice>1</voice>
        <type>eighth</type>
        <stem>up</stem>
        <staff>1</staff>
        <beam number="1">end</beam>
        </note>
      <note default-x="227.85" default-y="-25">
        <pitch>
          <step>A</step>
          <octave>3</octave>
          </pitch>
        <duration>1</duration>
        <voice>1</voice>
        <type>eighth</type>
        <stem>up</stem>
        <staff>1</staff>
        </note>
      <note default-x="267.01" default-y="-20">
        <pitch>
          <step>B</step>
          <octave>3</octave>
          </pitch>
        <duration>1</duration>
        <voice>1</voice>
        <type>eighth</type>
        <stem>down</stem>
        <staff>1</staff>
        </note>
      <backup>
        <duration>8</duration>
        </backup>
      <note default-x="15" default-y="-102.37">
        <pitch>
          <step>C</step>
          <octave>4</octave>
          </pitch>
        <duration>2</duration>
        <voice>5</voice>
        <type>quarter</type>
        <stem>none</stem>
        <staff>2</staff>
        <notations>
          <technical>
            <string>2</string>
            <fret>1</fret>
            </technical>
          </notations>
        </note>
      <note default-x="73.73" default-y="-102.37">
        <pitch>
          <step>C</step>
          <octave>4</octave>
          </pitch>
        <duration>1</duration>
        <voice>5</voice>
        <type>eighth</type>
        <stem>none</stem>
        <staff>2</staff>
        <notations>
          <technical>
            <string>2</string>
            <fret>1</fret>
            </technical>
          </notations>
        </note>
      <note default-x="112.88" default-y="-117.37">
        <pitch>
          <step>G</step>
          <octave>3</octave>
          </pitch>
        <duration>1</duration>
        <voice>5</voice>
        <type>eighth</type>
        <stem>none</stem>
        <staff>2</staff>
        <notations>
          <technical>
            <string>3</string>
            <fret>0</fret>
            </technical>
          </notations>
        </note>
      <note default-x="152.04" default-y="-132.37">
        <pitch>
          <step>F</step>
          <alter>1</alter>
          <octave>3</octave>
          </pitch>
        <duration>1</duration>
        <voice>5</voice>
        <type>eighth</type>
        <stem>none</stem>
        <staff>2</staff>
        <notations>
          <technical>
            <string>4</string>
            <fret>4</fret>
            </technical>
          </notations>
        </note>
      <note default-x="191.19" default-y="-117.37">
        <pitch>
          <step>G</step>
          <octave>3</octave>
          </pitch>
        <duration>1</duration>
        <voice>5</voice>
        <type>eighth</type>
        <stem>none</stem>
        <staff>2</staff>
        <notations>
          <technical>
            <string>3</string>
            <fret>0</fret>
            </technical>
          </notations>
        </note>
      <note default-x="230.35" default-y="-117.37">
        <pitch>
          <step>A</step>
          <octave>3</octave>
          </pitch>
        <duration>1</duration>
        <voice>5</voice>
        <type>eighth</type>
        <stem>none</stem>
        <staff>2</staff>
        <notations>
          <technical>
            <string>3</string>
            <fret>2</fret>
            </technical>
          </notations>
        </note>
      <note default-x="269.5" default-y="-102.37">
        <pitch>
          <step>B</step>
          <octave>3</octave>
          </pitch>
        <duration>1</duration>
        <voice>5</voice>
        <type>eighth</type>
        <stem>none</stem>
        <staff>2</staff>
        <notations>
          <technical>
            <string>2</string>
            <fret>0</fret>
            </technical>
          </notations>
        </note>
      </measure>
    <measure number="27" width="0">
      <attributes>
        <measure-style>
          <multiple-rest>2</multiple-rest>
          </measure-style>
        </attributes>
      <direction placement="above">
        <direction-type>
          <words relative-y="10">% repeat the earlier bar</words>
          </direction-type>
        <staff>1</staff>
        </direction>
      <note default-x="0" default-y="0" print-object="no">
        <rest measure="yes"/>
        <duration>8</duration>
        <voice>1</voice>
        <staff>1</staff>
        </note>
      <backup>
        <duration>8</duration>
        </backup>
      <note default-x="0" default-y="0" print-object="no">
        <rest measure="yes"/>
        <duration>8</duration>
        <voice>5</voice>
        <staff>2</staff>
        </note>
      </measure>
    <measure number="28" width="0">
      <note default-x="0" default-y="0" print-object="no">
        <rest measure="yes"/>
        <duration>8</duration>
        <voice>1</voice>
        <staff>1</staff>
        </note>
      <backup>
        <duration>8</duration>
        </backup>
      <note default-x="0" default-y="0" print-object="no">
        <rest measure="yes"/>
        <duration>8</duration>
        <voice>5</voice>
        <staff>2</staff>
        </note>
      </measure>
    <measure number="29" width="258.43">
      <note default-x="12.5" default-y="-15">
        <pitch>
          <step>C</step>
          <octave>4</octave>
          </pitch>
        <duration>2</duration>
        <voice>1</voice>
        <type>quarter</type>
        <stem>down</stem>
        <staff>1</staff>
        </note>
      <note default-x="71.23" default-y="-30">
        <pitch>
          <step>G</step>
          <octave>3</octave>
          </pitch>
        <duration>2</duration>
        <voice>1</voice>
        <type>quarter</type>
        <stem>up</stem>
        <staff>1</staff>
        </note>
      <note default-x="129.96" default-y="-15">
        <pitch>
          <step>C</step>
          <octave>4</octave>
          </pitch>
        <duration>2</duration>
        <voice>1</voice>
        <type>quarter</type>
        <stem>down</stem>
        <staff>1</staff>
        </note>
      <note default-x="188.7" default-y="-20">
        <rest/>
        <duration>2</duration>
        <voice>1</voice>
        <type>quarter</type>
        <staff>1</staff>
        </note>
      <backup>
        <duration>8</duration>
        </backup>
      <note default-x="15" default-y="-102.37">
        <pitch>
          <step>C</step>
          <octave>4</octave>
          </pitch>
        <duration>2</duration>
        <voice>5</voice>
        <type>quarter</type>
        <stem>none</stem>
        <staff>2</staff>
        <notations>
          <technical>
            <string>2</string>
            <fret>1</fret>
            </technical>
          </notations>
        </note>
      <note default-x="73.73" default-y="-117.37">
        <pitch>
          <step>G</step>
          <octave>3</octave>
          </pitch>
        <duration>2</duration>
        <voice>5</voice>
        <type>quarter</type>
        <stem>none</stem>
        <staff>2</staff>
        <notations>
          <technical>
            <string>3</string>
            <fret>0</fret>
            </technical>
          </notations>
        </note>
      <note default-x="132.46" default-y="-102.37">
        <pitch>
          <step>C</step>
          <octave>4</octave>
          </pitch>
        <duration>2</duration>
        <voice>5</voice>
        <type>quarter</type>
        <stem>none</stem>
        <staff>2</staff>
        <notations>
          <technical>
            <string>2</string>
            <fret>1</fret>
            </technical>
          </notations>
        </note>
      <note default-x="188.7" default-y="-132.37">
        <rest/>
        <duration>2</duration>
        <voice>5</voice>
        <type>quarter</type>
        <staff>2</staff>
        </note>
      <barline location="right">
        <bar-style>light-heavy</bar-style>
        </barline>
      </measure>
    </part>
  </score-partwise>
